<svg width="54" height="54" viewBox="0 0 54 54" fill="none" xmlns="http://www.w3.org/2000/svg">
<path d="M24.2546 21.9661C24.2546 28.5374 18.9276 33.8644 12.3563 33.8644C5.78507 33.8644 0.458008 28.5374 0.458008 21.9661C0.458008 15.3949 5.78507 10.0678 12.3563 10.0678C18.9276 10.0678 24.2546 15.3949 24.2546 21.9661Z" fill="#9D3E89"/>
<path d="M53.5428 28.3729C53.5428 38.4827 45.3475 46.678 35.2377 46.678C25.1279 46.678 16.9326 38.4827 16.9326 28.3729C16.9326 18.2631 25.1279 10.0678 35.2377 10.0678C45.3475 10.0678 53.5428 18.2631 53.5428 28.3729Z" fill="#DB99CD"/>
<path d="M10.5254 43.9322C9.00904 43.9322 7.77961 42.7028 7.77961 41.1864C7.77961 40.681 7.3698 40.2712 6.86436 40.2712C6.35891 40.2712 5.9491 40.681 5.9491 41.1864C5.9491 42.7028 4.71968 43.9322 3.20334 43.9322C2.69789 43.9322 2.28809 44.342 2.28809 44.8475C2.28809 45.3529 2.69789 45.7627 3.20334 45.7627C4.71968 45.7627 5.9491 46.9921 5.9491 48.5085C5.9491 49.0139 6.35891 49.4237 6.86436 49.4237C7.3698 49.4237 7.77961 49.0139 7.77961 48.5085C7.77961 46.9921 9.00904 45.7627 10.5254 45.7627C11.0308 45.7627 11.4406 45.3529 11.4406 44.8475C11.4406 44.342 11.0308 43.9322 10.5254 43.9322ZM6.86436 45.7909C6.59756 45.432 6.27981 45.1143 5.92095 44.8475C6.27981 44.5807 6.59756 44.2629 6.86436 43.904C7.13116 44.2629 7.4489 44.5807 7.80777 44.8475C7.4489 45.1143 7.13116 45.432 6.86436 45.7909Z" fill="#9D3E89"/>
<path d="M48.9658 3.66102C47.4495 3.66102 46.22 2.43159 46.22 0.915254C46.22 0.409809 45.8102 0 45.3048 0C44.7993 0 44.3895 0.409809 44.3895 0.915254C44.3895 2.43159 43.1601 3.66102 41.6438 3.66102C41.1383 3.66102 40.7285 4.07083 40.7285 4.57627C40.7285 5.08172 41.1383 5.49153 41.6438 5.49153C43.1601 5.49153 44.3895 6.72095 44.3895 8.23729C44.3895 8.74273 44.7993 9.15254 45.3048 9.15254C45.8102 9.15254 46.22 8.74273 46.22 8.23729C46.22 6.72095 47.4495 5.49153 48.9658 5.49153C49.4712 5.49153 49.8811 5.08172 49.8811 4.57627C49.8811 4.07083 49.4712 3.66102 48.9658 3.66102ZM45.3048 5.51968C45.038 5.16082 44.7202 4.84307 44.3614 4.57627C44.7202 4.30947 45.038 3.99172 45.3048 3.63286C45.5716 3.99172 45.8893 4.30947 46.2482 4.57627C45.8893 4.84307 45.5716 5.16082 45.3048 5.51968Z" fill="#9D3E89"/>
<path d="M47.1357 28.3729C45.6194 28.3729 44.39 27.1434 44.39 25.6271C44.39 25.1217 43.9802 24.7119 43.4747 24.7119C42.9693 24.7119 42.5595 25.1217 42.5595 25.6271C42.5595 27.1434 41.33 28.3729 39.8137 28.3729C39.3082 28.3729 38.8984 28.7827 38.8984 29.2881C38.8984 29.7936 39.3082 30.2034 39.8137 30.2034C41.33 30.2034 42.5595 31.4328 42.5595 32.9491C42.5595 33.4546 42.9693 33.8644 43.4747 33.8644C43.9802 33.8644 44.39 33.4546 44.39 32.9491C44.39 31.4328 45.6194 30.2034 47.1357 30.2034C47.6412 30.2034 48.051 29.7936 48.051 29.2881C48.051 28.7827 47.6412 28.3729 47.1357 28.3729ZM43.4747 30.2315C43.2079 29.8727 42.8902 29.5549 42.5313 29.2881C42.8902 29.0213 43.2079 28.7036 43.4747 28.3447C43.7415 28.7036 44.0593 29.0213 44.4181 29.2881C44.0593 29.5549 43.7415 29.8727 43.4747 30.2315Z" fill="#FFF7FD"/>
<path d="M36.1523 20.1356C34.636 20.1356 33.4066 18.9061 33.4066 17.3898C33.4066 16.8844 32.9968 16.4745 32.4913 16.4745C31.9859 16.4745 31.5761 16.8844 31.5761 17.3898C31.5761 18.9061 30.3466 20.1356 28.8303 20.1356C28.3248 20.1356 27.915 20.5454 27.915 21.0508C27.915 21.5563 28.3248 21.9661 28.8303 21.9661C30.3466 21.9661 31.5761 23.1955 31.5761 24.7118C31.5761 25.2173 31.9859 25.6271 32.4913 25.6271C32.9968 25.6271 33.4066 25.2173 33.4066 24.7118C33.4066 23.1955 34.636 21.9661 36.1523 21.9661C36.6578 21.9661 37.0676 21.5563 37.0676 21.0508C37.0676 20.5454 36.6578 20.1356 36.1523 20.1356ZM32.4913 21.9942C32.2245 21.6354 31.9068 21.3176 31.5479 21.0508C31.9068 20.784 32.2245 20.4663 32.4913 20.1074C32.7581 20.4663 33.0759 20.784 33.4347 21.0508C33.0759 21.3176 32.7581 21.6354 32.4913 21.9942Z" fill="#FFF7FD"/>
<path d="M10.5254 37.5254H12.3559V39.3559H10.5254V37.5254Z" fill="#FCEC97"/>
<path d="M1.37305 50.339H3.20356V52.1695H1.37305V50.339Z" fill="#FCEC97"/>
<path d="M52.6268 47.5932C52.6268 48.6041 51.8072 49.4237 50.7963 49.4237C49.7854 49.4237 48.9658 48.6041 48.9658 47.5932C48.9658 46.5823 49.7854 45.7627 50.7963 45.7627C51.8072 45.7627 52.6268 46.5823 52.6268 47.5932Z" fill="#660351"/>
<path d="M26.0843 6.40677C26.0843 7.92311 24.8549 9.15254 23.3385 9.15254C21.8222 9.15254 20.5928 7.92311 20.5928 6.40677C20.5928 4.89044 21.8222 3.66101 23.3385 3.66101C24.8549 3.66101 26.0843 4.89044 26.0843 6.40677Z" fill="#660351"/>
<path d="M32.4912 4.57629H34.3217V6.4068H32.4912V4.57629Z" fill="#FCEC97"/>
<path d="M36.1523 38.4407H37.9829V40.2712H36.1523V38.4407Z" fill="#E6F1FD"/>
<path d="M41.6445 50.339H43.475V52.1695H41.6445V50.339Z" fill="#FCEC97"/>
<path d="M10.5254 23.7966H12.3559V25.6271H10.5254V23.7966Z" fill="#FFF7FD"/>
<path d="M3.20345 23.8789C3.18423 23.6684 2.76682 18.6693 5.72129 15.4346C7.44633 13.6381 9.86854 12.6808 12.356 12.8136V14.6441C10.3856 14.5234 8.4599 15.2621 7.07585 16.6694C4.66124 19.312 5.02591 23.6702 5.03396 23.7144L3.20345 23.8789Z" fill="#FFF7FD"/>
<path d="M48.9739 27.5783C47.2753 14.839 36.6037 14.6441 36.1523 14.6441V12.8136C36.2797 12.8136 48.8743 12.9803 50.7884 27.337L48.9739 27.5783Z" fill="#FFF7FD"/>
<path d="M32.4916 44.8475C32.4916 49.9024 28.394 54 23.3391 54C18.2842 54 14.1865 49.9024 14.1865 44.8475C14.1865 39.7926 18.2842 35.6949 23.3391 35.6949C28.394 35.6949 32.4916 39.7926 32.4916 44.8475Z" fill="#9D3E89"/>
</svg>
