<svg width="15" height="13" viewBox="0 0 15 13" fill="none" xmlns="http://www.w3.org/2000/svg">
<path d="M11.4999 13C10.8652 13.0001 10.2542 12.7588 9.79084 12.325C9.3275 11.8912 9.04652 11.2974 9.00488 10.664L8.99988 10.458C9.00988 6.903 10.2399 3.844 12.7049 1.235C12.7719 1.16102 12.853 1.10116 12.9435 1.05893C13.0339 1.0167 13.1319 0.992949 13.2316 0.989073C13.3314 0.985197 13.4309 1.00127 13.5243 1.03636C13.6178 1.07144 13.7033 1.12483 13.7759 1.19339C13.8484 1.26195 13.9065 1.3443 13.9469 1.43562C13.9872 1.52694 14.0089 1.62539 14.0106 1.72519C14.0124 1.825 13.9942 1.92416 13.9572 2.01685C13.9201 2.10954 13.865 2.19391 13.7949 2.265C12.1549 4.002 11.1349 5.939 10.7179 8.124C11.0614 8.01159 11.4252 7.97499 11.7841 8.01673C12.1431 8.05847 12.4888 8.17755 12.7974 8.36576C13.1059 8.55397 13.37 8.80685 13.5714 9.10695C13.7727 9.40706 13.9067 9.74726 13.9639 10.1041C14.0211 10.461 14.0003 10.826 13.9029 11.174C13.8054 11.5221 13.6337 11.8448 13.3995 12.1201C13.1653 12.3953 12.8742 12.6166 12.5462 12.7685C12.2183 12.9204 11.8613 12.9994 11.4999 13ZM2.49988 13C1.86516 13.0001 1.25417 12.7588 0.790837 12.325C0.327503 11.8912 0.0465193 11.2974 0.00488186 10.664L-0.000117302 10.458C0.00988293 6.898 1.23788 3.844 3.70488 1.235C3.7719 1.16102 3.85301 1.10116 3.94346 1.05893C4.03391 1.0167 4.13188 0.992949 4.23162 0.989073C4.33137 0.985197 4.43089 1.00127 4.52434 1.03636C4.61779 1.07144 4.7033 1.12483 4.77586 1.19339C4.84841 1.26195 4.90655 1.3443 4.94686 1.43562C4.98717 1.52694 5.00885 1.62539 5.01062 1.72519C5.0124 1.825 4.99423 1.92416 4.95718 2.01685C4.92013 2.10954 4.86496 2.19391 4.79488 2.265C3.15188 4.003 2.13288 5.937 1.71688 8.124C2.06033 8.0116 2.42407 7.975 2.78302 8.01672C3.14198 8.05843 3.48763 8.17747 3.79615 8.36563C4.10467 8.55379 4.36873 8.8066 4.57014 9.10665C4.77155 9.40669 4.90552 9.74683 4.96282 10.1036C5.02011 10.4604 4.99938 10.8254 4.90203 11.1734C4.80469 11.5214 4.63306 11.8442 4.39896 12.1195C4.16486 12.3948 3.87386 12.6161 3.54601 12.7681C3.21816 12.9201 2.86125 12.9992 2.49988 13ZM11.4999 11.5C11.6927 11.5 11.8814 11.4443 12.0432 11.3396C12.2051 11.2349 12.3333 11.0856 12.4122 10.9097C12.4912 10.7338 12.5177 10.5389 12.4884 10.3483C12.4592 10.1577 12.3755 9.97968 12.2474 9.83559C12.1193 9.6915 11.9523 9.58751 11.7664 9.53615C11.5806 9.48478 11.3839 9.48822 11.2 9.54607C11.0161 9.60391 10.8528 9.71368 10.7298 9.86217C10.6069 10.0107 10.5294 10.1915 10.5069 10.383L10.4999 10.507C10.5017 10.771 10.6079 11.0236 10.7952 11.2096C10.9826 11.3956 11.2359 11.5 11.4999 11.5ZM2.49988 11.5C2.69268 11.5 2.88137 11.4443 3.04324 11.3396C3.20511 11.2349 3.33325 11.0856 3.41224 10.9097C3.49123 10.7338 3.51769 10.5389 3.48844 10.3483C3.45919 10.1577 3.37548 9.97968 3.24739 9.83559C3.11929 9.6915 2.95228 9.58751 2.76645 9.53615C2.58062 9.48478 2.38391 9.48822 2.19999 9.54607C2.01608 9.60391 1.85281 9.71368 1.72984 9.86217C1.60687 10.0107 1.52944 10.1915 1.50688 10.383L1.49988 10.507C1.50173 10.771 1.6079 11.0236 1.79524 11.2096C1.98258 11.3956 2.23587 11.5 2.49988 11.5Z" fill="#FE96C6"/>
</svg>
