<svg width="54" height="54" viewBox="0 0 54 54" fill="none" xmlns="http://www.w3.org/2000/svg">
<path d="M47.6694 36.0608C46.218 39.9945 44.0229 43.4148 41.1444 46.2258C37.8678 49.4253 33.5774 51.9677 28.3921 53.7812C28.222 53.8406 28.0444 53.8892 27.866 53.925C27.6304 53.9716 27.3906 53.9967 27.1529 54H27.1063C26.8529 54 26.5983 53.9745 26.3458 53.925C26.1674 53.8892 25.9923 53.8406 25.823 53.7825C20.6315 51.9718 16.3357 49.4306 13.0559 46.2312C10.1761 43.4202 7.98142 40.0019 6.53205 36.0682C3.89656 28.9161 4.04652 21.0373 4.16724 14.7059L4.1693 14.6086C4.1936 14.0858 4.20926 13.5366 4.21791 12.9302C4.26199 9.95277 6.62928 7.48949 9.60712 7.32346C15.8158 6.97698 20.6187 4.95206 24.7225 0.952074L24.7584 0.919115C25.4398 0.29413 26.2984 -0.0123885 27.1529 0.000383158C27.9768 0.0110949 28.7975 0.317201 29.4546 0.919115L29.4897 0.952074C33.5943 4.95206 38.3972 6.97698 44.6059 7.32346C47.5837 7.48949 49.951 9.95277 49.9951 12.9302C50.0038 13.5408 50.0194 14.0891 50.0437 14.6086L50.045 14.6498C50.1653 20.9932 50.3144 28.8877 47.6694 36.0608Z" fill="#51C2DD"/>
<path d="M47.6689 36.0608C46.2175 39.9945 44.0224 43.4148 41.1438 46.2258C37.8673 49.4253 33.5769 51.9677 28.3916 53.7812C28.2215 53.8406 28.0439 53.8892 27.8655 53.925C27.6298 53.9716 27.3901 53.9967 27.1523 54V0.000366211C27.9763 0.0110779 28.797 0.317185 29.4541 0.919099L29.4891 0.952058C33.5938 4.95205 38.3967 6.97697 44.6054 7.32345C47.5832 7.48948 49.9505 9.95275 49.9946 12.9302C50.0032 13.5408 50.0189 14.0891 50.0432 14.6086L50.0444 14.6498C50.1647 20.9932 50.3139 28.8877 47.6689 36.0608Z" fill="#21A4C4"/>
<path d="M40.5629 27C40.5629 34.4046 34.5507 40.432 27.1523 40.4584H27.1049C19.6846 40.4584 13.6465 34.4207 13.6465 27C13.6465 19.5797 19.6846 13.542 27.1049 13.542H27.1523C34.5507 13.5684 40.5629 19.5957 40.5629 27Z" fill="white"/>
<path d="M40.563 27C40.563 34.4046 34.5508 40.432 27.1523 40.4584V13.542C34.5508 13.5684 40.563 19.5957 40.563 27Z" fill="#E1EBF0"/>
<path d="M33.2138 25.062L27.1527 31.124L25.8429 32.4337C25.5335 32.7431 25.1277 32.8976 24.7223 32.8976C24.3165 32.8976 23.9111 32.7431 23.6013 32.4337L20.7854 29.6165C20.1666 28.9977 20.1666 27.9953 20.7854 27.3761C21.4034 26.7573 22.407 26.7573 23.0258 27.3761L24.7223 29.0727L30.9734 22.8216C31.5922 22.2024 32.5958 22.2024 33.2138 22.8216C33.8326 23.4404 33.8326 24.444 33.2138 25.062Z" fill="#B4D2D7"/>
<path d="M33.2135 25.062L27.1523 31.124V26.642L30.9731 22.8216C31.5919 22.2024 32.5955 22.2024 33.2135 22.8216C33.8323 23.4404 33.8323 24.444 33.2135 25.062Z" fill="#6FA5AA"/>
</svg>
