<svg width="54" height="54" viewBox="0 0 54 54" fill="none" xmlns="http://www.w3.org/2000/svg">
<path d="M49.7813 27C49.7813 25.1927 51.2452 23.2453 50.8604 21.5544C50.4639 19.8079 48.2904 18.6857 47.5302 17.1138C46.7581 15.5107 47.2289 13.1186 46.1304 11.7433C45.0318 10.368 42.5866 10.2912 41.2037 9.18759C39.8208 8.08397 39.2209 5.72231 37.6195 4.94944C36.0442 4.19006 33.8175 5.18231 32.0718 4.78491C30.3809 4.401 28.8074 2.53125 27 2.53125C25.1927 2.53125 23.62 4.401 21.9283 4.78491C20.1825 5.18231 17.9559 4.19428 16.3806 4.94944C14.7775 5.72231 14.1717 8.08987 12.7964 9.18759C11.421 10.2853 8.97248 10.3613 7.86885 11.7433C6.76523 13.1254 7.24195 15.5123 6.46991 17.1138C5.71054 18.6891 3.53619 19.8079 3.13963 21.5544C2.75488 23.2453 4.21879 25.1927 4.21879 27C4.21879 28.8073 2.75488 30.7547 3.13963 32.4456C3.53619 34.1921 5.7097 35.3143 6.46991 36.8862C7.24195 38.4893 6.77113 40.8814 7.86969 42.2567C8.96826 43.632 11.4134 43.7088 12.7964 44.8124C14.1793 45.916 14.7792 48.2777 16.3806 49.0506C17.9559 49.8099 20.1825 48.8177 21.9283 49.2193C23.6191 49.599 25.1927 51.4688 27 51.4688C28.8074 51.4688 30.3801 49.599 32.0718 49.2151C33.8175 48.8177 36.0442 49.8057 37.6195 49.0463C39.2226 48.2735 39.8284 45.9059 41.2037 44.8082C42.579 43.7105 45.0276 43.6345 46.1312 42.2525C47.2349 40.8704 46.7581 38.4834 47.5302 36.882C48.2895 35.3067 50.4639 34.1879 50.8604 32.4413C51.2452 30.7547 49.7813 28.8073 49.7813 27Z" fill="#FE96C6"/>
<path d="M27 47.25H26.622L26.6566 45.5625H27C27.6926 45.5626 28.3847 45.5245 29.0731 45.4486L29.257 47.1268C28.5075 47.2084 27.754 47.2496 27 47.25ZM23.9937 47.0289C23.1231 46.8986 22.2618 46.712 21.4152 46.4704L21.8793 44.847C22.6549 45.0688 23.444 45.2402 24.2418 45.36L23.9937 47.0289ZM31.8566 46.6636L31.4525 45.025C32.2369 44.832 33.0077 44.5876 33.7601 44.2935L34.3735 45.8654C33.553 46.1864 32.7122 46.453 31.8566 46.6636ZM18.9312 45.5777C18.1242 45.2266 17.341 44.8233 16.5864 44.3703L17.4555 42.9233C18.1464 43.3386 18.8637 43.7084 19.6028 44.0303L18.9312 45.5777ZM36.7647 44.7441L35.9497 43.2658C36.6566 42.8759 37.3376 42.4404 37.9882 41.9622L38.988 43.3224C38.2781 43.8434 37.5355 44.3183 36.7647 44.7441ZM14.4188 42.8693C13.7295 42.3213 13.0762 41.7294 12.463 41.0974L13.6747 39.922C14.2364 40.5018 14.8354 41.0443 15.4676 41.5463L14.4188 42.8693ZM41.0062 41.623L39.8385 40.4055C40.4217 39.8468 40.9679 39.2507 41.4737 38.621L42.7891 39.679C42.2372 40.3647 41.6417 41.014 41.0062 41.623ZM10.7502 39.0918C10.2249 38.3854 9.74582 37.6459 9.31584 36.8778L10.7882 36.0543C11.1831 36.7589 11.6231 37.4372 12.1053 38.0852L10.7502 39.0918ZM44.3045 37.5241L42.8625 36.6424C43.2818 35.9539 43.6558 35.2389 43.9822 34.5018L45.5254 35.1835C45.1702 35.9883 44.763 36.769 44.3062 37.5207L44.3045 37.5241ZM8.18438 34.49C7.8574 33.6713 7.58401 32.8323 7.36594 31.9781L9.00281 31.5647C9.20065 32.3475 9.44981 33.1164 9.74869 33.8665L8.18438 34.49ZM46.4392 32.7046L44.8158 32.2313C45.0423 31.456 45.2182 30.6668 45.3423 29.8688L47.0095 30.1278C46.8743 30.9983 46.6823 31.8591 46.4349 32.7046H46.4392ZM6.88922 29.3819C6.79636 28.5914 6.74987 27.796 6.75 27V26.7469L8.4375 26.7654V27.0017C8.43779 27.7309 8.48033 28.4594 8.56491 29.1836L6.88922 29.3819ZM47.2441 27.5004L45.5566 27.4607C45.5566 27.3071 45.5617 27.1544 45.5617 27C45.5619 26.1928 45.5097 25.3865 45.4056 24.586L47.0796 24.3684C47.1927 25.241 47.2497 26.12 47.25 27C47.25 27.1688 47.25 27.3375 47.2441 27.5004ZM8.62397 24.3574L6.95334 24.1186C7.0781 23.2466 7.25932 22.3836 7.49588 21.535L9.12094 21.9898C8.90425 22.7674 8.73825 23.5583 8.62397 24.3574ZM44.9398 22.2134C44.7318 21.4331 44.4728 20.6673 44.1644 19.921L45.7245 19.2772C46.06 20.0918 46.3419 20.9275 46.5683 21.7789L44.9398 22.2134ZM9.92419 19.71L8.37253 19.046C8.719 18.2372 9.11752 17.4517 9.56559 16.6945L11.0177 17.5551C10.6064 18.2488 10.2408 18.9686 9.92334 19.71H9.92419ZM43.0979 17.75C42.6943 17.0506 42.2462 16.3779 41.7563 15.736L43.0971 14.7116C43.6313 15.4108 44.12 16.1435 44.5601 16.9054L43.0979 17.75ZM12.3854 15.5562L11.0531 14.5184C11.5962 13.8253 12.1836 13.1681 12.8115 12.5508L13.9927 13.7557C13.4176 14.3211 12.8796 14.9231 12.382 15.5579L12.3854 15.5562ZM40.1625 13.9126C39.5938 13.3391 38.9881 12.8036 38.3493 12.3095L39.3829 10.9747C40.0786 11.5139 40.7389 12.0973 41.3598 12.7212L40.1625 13.9126ZM15.8271 12.1762L14.8146 10.8262C15.518 10.2965 16.2547 9.8126 17.0201 9.37745L17.8529 10.8439C17.1497 11.244 16.473 11.689 15.8271 12.1762ZM36.3462 10.9578C35.6497 10.5519 34.9276 10.1914 34.1845 9.87864L34.8384 8.32276C35.6509 8.66446 36.4401 9.05906 37.2009 9.50401L36.3462 10.9578ZM20.0281 9.78751L19.3927 8.22404C20.2097 7.89253 21.0477 7.61546 21.9012 7.39464L22.3231 9.0273C21.5423 9.23031 20.7757 9.48426 20.0281 9.78751ZM31.8988 9.0872C31.121 8.87535 30.3301 8.71469 29.5312 8.60626L29.7599 6.93395C30.6322 7.05283 31.4958 7.22871 32.3452 7.46045L31.8988 9.0872ZM24.6982 8.5742L24.4932 6.9002C25.325 6.7992 26.1621 6.74905 27 6.75001H27.1207V8.43751H27C26.2306 8.4378 25.462 8.48457 24.6982 8.57758V8.5742Z" fill="#FE96C6"/>
<path d="M27 42.1875C35.3878 42.1875 42.1875 35.3878 42.1875 27C42.1875 18.6122 35.3878 11.8125 27 11.8125C18.6122 11.8125 11.8125 18.6122 11.8125 27C11.8125 35.3878 18.6122 42.1875 27 42.1875Z" fill="#83BEB9"/>
<path d="M27 17.717L29.1912 24.4687H36.2812L30.5454 28.6284L32.7358 35.3717L27 31.2035L21.2642 35.3717L23.4546 28.6284L17.7188 24.4687H24.8088L27 17.717Z" fill="#02998A"/>
</svg>
